<svg width="732" height="250" viewBox="0 0 732 250" fill="none" xmlns="http://www.w3.org/2000/svg">
<path d="M1.46557 6.04V4.878H4.09757V15H2.80957V6.04H1.46557ZM6.28595 9.834C6.28595 8.22867 6.54728 6.978 7.06995 6.082C7.59262 5.17667 8.50728 4.724 9.81395 4.724C11.1113 4.724 12.0213 5.17667 12.5439 6.082C13.0666 6.978 13.3279 8.22867 13.3279 9.834C13.3279 11.4673 13.0666 12.7367 12.5439 13.642C12.0213 14.5473 11.1113 15 9.81395 15C8.50728 15 7.59262 14.5473 7.06995 13.642C6.54728 12.7367 6.28595 11.4673 6.28595 9.834ZM12.068 9.834C12.068 9.022 12.012 8.336 11.9 7.776C11.7973 7.20667 11.5779 6.74933 11.2419 6.404C10.9153 6.05867 10.4393 5.886 9.81395 5.886C9.17928 5.886 8.69395 6.05867 8.35795 6.404C8.03128 6.74933 7.81195 7.20667 7.69995 7.776C7.59728 8.336 7.54595 9.022 7.54595 9.834C7.54595 10.674 7.59728 11.3787 7.69995 11.948C7.81195 12.5173 8.03128 12.9747 8.35795 13.32C8.69395 13.6653 9.17928 13.838 9.81395 13.838C10.4393 13.838 10.9153 13.6653 11.2419 13.32C11.5779 12.9747 11.7973 12.5173 11.9 11.948C12.012 11.3787 12.068 10.674 12.068 9.834ZM15.077 9.834C15.077 8.22867 15.3383 6.978 15.861 6.082C16.3836 5.17667 17.2983 4.724 18.605 4.724C19.9023 4.724 20.8123 5.17667 21.335 6.082C21.8576 6.978 22.119 8.22867 22.119 9.834C22.119 11.4673 21.8576 12.7367 21.335 13.642C20.8123 14.5473 19.9023 15 18.605 15C17.2983 15 16.3836 14.5473 15.861 13.642C15.3383 12.7367 15.077 11.4673 15.077 9.834ZM20.859 9.834C20.859 9.022 20.803 8.336 20.691 7.776C20.5883 7.20667 20.369 6.74933 20.033 6.404C19.7063 6.05867 19.2303 5.886 18.605 5.886C17.9703 5.886 17.485 6.05867 17.149 6.404C16.8223 6.74933 16.603 7.20667 16.491 7.776C16.3883 8.336 16.337 9.022 16.337 9.834C16.337 10.674 16.3883 11.3787 16.491 11.948C16.603 12.5173 16.8223 12.9747 17.149 13.32C17.485 13.6653 17.9703 13.838 18.605 13.838C19.2303 13.838 19.7063 13.6653 20.033 13.32C20.369 12.9747 20.5883 12.5173 20.691 11.948C20.803 11.3787 20.859 10.674 20.859 9.834Z" fill="#7C8DB5"/>
<line x1="38" y1="9.99997" x2="732" y2="10" stroke="#E6EDFF"/>
<path d="M7.09293 49.736C6.57027 49.5307 6.16893 49.232 5.88893 48.84C5.60893 48.448 5.46893 47.972 5.46893 47.412C5.46893 46.908 5.59493 46.4553 5.84693 46.054C6.09893 45.6433 6.47227 45.3213 6.96693 45.088C7.47093 44.8453 8.0776 44.724 8.78693 44.724C9.49627 44.724 10.0983 44.8453 10.5929 45.088C11.0969 45.3213 11.4749 45.6433 11.7269 46.054C11.9883 46.4553 12.1189 46.908 12.1189 47.412C12.1189 47.9533 11.9743 48.4293 11.6849 48.84C11.3956 49.2413 10.9989 49.54 10.4949 49.736C11.0736 49.9133 11.5309 50.226 11.8669 50.674C12.2123 51.1127 12.3849 51.6447 12.3849 52.27C12.3849 52.8767 12.2356 53.4087 11.9369 53.866C11.6383 54.314 11.2136 54.664 10.6629 54.916C10.1216 55.1587 9.49627 55.28 8.78693 55.28C8.0776 55.28 7.45227 55.1587 6.91093 54.916C6.37893 54.664 5.9636 54.314 5.66493 53.866C5.36627 53.4087 5.21693 52.8767 5.21693 52.27C5.21693 51.6447 5.38493 51.108 5.72093 50.66C6.05693 50.212 6.51427 49.904 7.09293 49.736ZM10.8869 47.566C10.8869 46.9967 10.7003 46.558 10.3269 46.25C9.9536 45.942 9.44027 45.788 8.78693 45.788C8.14293 45.788 7.63427 45.942 7.26093 46.25C6.8876 46.558 6.70093 47.0013 6.70093 47.58C6.70093 48.1027 6.89227 48.5227 7.27493 48.84C7.66693 49.1573 8.17093 49.316 8.78693 49.316C9.41227 49.316 9.91627 49.1573 10.2989 48.84C10.6909 48.5133 10.8869 48.0887 10.8869 47.566ZM8.78693 50.296C8.09627 50.296 7.5316 50.4593 7.09293 50.786C6.65427 51.1033 6.43493 51.584 6.43493 52.228C6.43493 52.8253 6.64493 53.306 7.06493 53.67C7.49427 54.034 8.06827 54.216 8.78693 54.216C9.5056 54.216 10.0749 54.034 10.4949 53.67C10.9149 53.306 11.1249 52.8253 11.1249 52.228C11.1249 51.6027 10.9103 51.1267 10.4809 50.8C10.0516 50.464 9.48693 50.296 8.78693 50.296ZM14.077 49.834C14.077 48.2287 14.3383 46.978 14.861 46.082C15.3836 45.1767 16.2983 44.724 17.605 44.724C18.9023 44.724 19.8123 45.1767 20.335 46.082C20.8576 46.978 21.119 48.2287 21.119 49.834C21.119 51.4673 20.8576 52.7367 20.335 53.642C19.8123 54.5473 18.9023 55 17.605 55C16.2983 55 15.3836 54.5473 14.861 53.642C14.3383 52.7367 14.077 51.4673 14.077 49.834ZM19.859 49.834C19.859 49.022 19.803 48.336 19.691 47.776C19.5883 47.2067 19.369 46.7493 19.033 46.404C18.7063 46.0587 18.2303 45.886 17.605 45.886C16.9703 45.886 16.485 46.0587 16.149 46.404C15.8223 46.7493 15.603 47.2067 15.491 47.776C15.3883 48.336 15.337 49.022 15.337 49.834C15.337 50.674 15.3883 51.3787 15.491 51.948C15.603 52.5173 15.8223 52.9747 16.149 53.32C16.485 53.6653 16.9703 53.838 17.605 53.838C18.2303 53.838 18.7063 53.6653 19.033 53.32C19.369 52.9747 19.5883 52.5173 19.691 51.948C19.803 51.3787 19.859 50.674 19.859 49.834Z" fill="#7C8DB5"/>
<line x1="38.0004" y1="49.75" x2="732" y2="50.25" stroke="#E6EDFF"/>
<path d="M10.8323 87.286C10.6269 86.25 9.9876 85.732 8.91427 85.732C8.0836 85.732 7.46293 86.054 7.05227 86.698C6.6416 87.3327 6.44093 88.3827 6.45027 89.848C6.66493 89.3627 7.0196 88.9847 7.51427 88.714C8.01827 88.434 8.57827 88.294 9.19427 88.294C10.1556 88.294 10.9209 88.5927 11.4903 89.19C12.0689 89.7873 12.3583 90.6133 12.3583 91.668C12.3583 92.3027 12.2323 92.872 11.9803 93.376C11.7376 93.88 11.3643 94.2813 10.8603 94.58C10.3656 94.8787 9.7636 95.028 9.05427 95.028C8.09293 95.028 7.3416 94.8133 6.80027 94.384C6.25893 93.9547 5.88093 93.362 5.66627 92.606C5.4516 91.85 5.34427 90.9167 5.34427 89.806C5.34427 86.3807 6.53893 84.668 8.92827 84.668C9.84293 84.668 10.5616 84.9153 11.0843 85.41C11.6069 85.9047 11.9149 86.53 12.0083 87.286H10.8323ZM8.92827 89.372C8.52693 89.372 8.14893 89.456 7.79427 89.624C7.4396 89.7827 7.15027 90.03 6.92627 90.366C6.7116 90.6927 6.60427 91.094 6.60427 91.57C6.60427 92.2793 6.8096 92.858 7.22027 93.306C7.63093 93.7447 8.21893 93.964 8.98427 93.964C9.6376 93.964 10.1556 93.7633 10.5383 93.362C10.9303 92.9513 11.1263 92.4007 11.1263 91.71C11.1263 90.982 10.9396 90.4127 10.5663 90.002C10.1929 89.582 9.64693 89.372 8.92827 89.372ZM14.077 89.834C14.077 88.2287 14.3383 86.978 14.861 86.082C15.3837 85.1767 16.2983 84.724 17.605 84.724C18.9023 84.724 19.8123 85.1767 20.335 86.082C20.8577 86.978 21.119 88.2287 21.119 89.834C21.119 91.4673 20.8577 92.7367 20.335 93.642C19.8123 94.5473 18.9023 95 17.605 95C16.2983 95 15.3837 94.5473 14.861 93.642C14.3383 92.7367 14.077 91.4673 14.077 89.834ZM19.859 89.834C19.859 89.022 19.803 88.336 19.691 87.776C19.5883 87.2067 19.369 86.7493 19.033 86.404C18.7063 86.0587 18.2303 85.886 17.605 85.886C16.9703 85.886 16.485 86.0587 16.149 86.404C15.8223 86.7493 15.603 87.2067 15.491 87.776C15.3883 88.336 15.337 89.022 15.337 89.834C15.337 90.674 15.3883 91.3787 15.491 91.948C15.603 92.5173 15.8223 92.9747 16.149 93.32C16.485 93.6653 16.9703 93.838 17.605 93.838C18.2303 93.838 18.7063 93.6653 19.033 93.32C19.369 92.9747 19.5883 92.5173 19.691 91.948C19.803 91.3787 19.859 90.674 19.859 89.834Z" fill="#7C8DB5"/>
<line x1="38" y1="90" x2="732" y2="90" stroke="#E6EDFF"/>
<path d="M4.9643 132.746V131.78L9.8783 124.976H11.4043V131.64H12.8043V132.746H11.4043V135H10.1443V132.746H4.9643ZM10.2003 126.306L6.4343 131.64H10.2003V126.306ZM14.077 129.834C14.077 128.229 14.3383 126.978 14.861 126.082C15.3837 125.177 16.2983 124.724 17.605 124.724C18.9023 124.724 19.8123 125.177 20.335 126.082C20.8577 126.978 21.119 128.229 21.119 129.834C21.119 131.467 20.8577 132.737 20.335 133.642C19.8123 134.547 18.9023 135 17.605 135C16.2983 135 15.3837 134.547 14.861 133.642C14.3383 132.737 14.077 131.467 14.077 129.834ZM19.859 129.834C19.859 129.022 19.803 128.336 19.691 127.776C19.5883 127.207 19.369 126.749 19.033 126.404C18.7063 126.059 18.2303 125.886 17.605 125.886C16.9703 125.886 16.485 126.059 16.149 126.404C15.8223 126.749 15.603 127.207 15.491 127.776C15.3883 128.336 15.337 129.022 15.337 129.834C15.337 130.674 15.3883 131.379 15.491 131.948C15.603 132.517 15.8223 132.975 16.149 133.32C16.485 133.665 16.9703 133.838 17.605 133.838C18.2303 133.838 18.7063 133.665 19.033 133.32C19.369 132.975 19.5883 132.517 19.691 131.948C19.803 131.379 19.859 130.674 19.859 129.834Z" fill="#7C8DB5"/>
<line x1="38" y1="130" x2="732" y2="130" stroke="#E6EDFF"/>
<path d="M5.87025 173.978C7.05558 173.026 7.98425 172.247 8.65625 171.64C9.32825 171.024 9.89292 170.385 10.3503 169.722C10.8169 169.05 11.0503 168.392 11.0503 167.748C11.0503 167.141 10.9009 166.665 10.6023 166.32C10.3129 165.965 9.84158 165.788 9.18825 165.788C8.55358 165.788 8.05892 165.989 7.70425 166.39C7.35892 166.782 7.17225 167.309 7.14425 167.972H5.91225C5.94958 166.927 6.26692 166.119 6.86425 165.55C7.46158 164.981 8.23158 164.696 9.17425 164.696C10.1356 164.696 10.8963 164.962 11.4563 165.494C12.0256 166.026 12.3103 166.759 12.3103 167.692C12.3103 168.467 12.0769 169.223 11.6103 169.96C11.1529 170.688 10.6303 171.332 10.0423 171.892C9.45425 172.443 8.70292 173.087 7.78825 173.824H12.6043V174.888H5.87025V173.978ZM14.077 169.834C14.077 168.229 14.3383 166.978 14.861 166.082C15.3837 165.177 16.2983 164.724 17.605 164.724C18.9023 164.724 19.8123 165.177 20.335 166.082C20.8577 166.978 21.119 168.229 21.119 169.834C21.119 171.467 20.8577 172.737 20.335 173.642C19.8123 174.547 18.9023 175 17.605 175C16.2983 175 15.3837 174.547 14.861 173.642C14.3383 172.737 14.077 171.467 14.077 169.834ZM19.859 169.834C19.859 169.022 19.803 168.336 19.691 167.776C19.5883 167.207 19.369 166.749 19.033 166.404C18.7063 166.059 18.2303 165.886 17.605 165.886C16.9703 165.886 16.485 166.059 16.149 166.404C15.8223 166.749 15.603 167.207 15.491 167.776C15.3883 168.336 15.337 169.022 15.337 169.834C15.337 170.674 15.3883 171.379 15.491 171.948C15.603 172.517 15.8223 172.975 16.149 173.32C16.485 173.665 16.9703 173.838 17.605 173.838C18.2303 173.838 18.7063 173.665 19.033 173.32C19.369 172.975 19.5883 172.517 19.691 171.948C19.803 171.379 19.859 170.674 19.859 169.834Z" fill="#7C8DB5"/>
<line x1="38" y1="170" x2="732" y2="170" stroke="#E6EDFF"/>
<path d="M14.077 209.834C14.077 208.229 14.3383 206.978 14.861 206.082C15.3837 205.177 16.2983 204.724 17.605 204.724C18.9023 204.724 19.8123 205.177 20.335 206.082C20.8577 206.978 21.119 208.229 21.119 209.834C21.119 211.467 20.8577 212.737 20.335 213.642C19.8123 214.547 18.9023 215 17.605 215C16.2983 215 15.3837 214.547 14.861 213.642C14.3383 212.737 14.077 211.467 14.077 209.834ZM19.859 209.834C19.859 209.022 19.803 208.336 19.691 207.776C19.5883 207.207 19.369 206.749 19.033 206.404C18.7063 206.059 18.2303 205.886 17.605 205.886C16.9703 205.886 16.485 206.059 16.149 206.404C15.8223 206.749 15.603 207.207 15.491 207.776C15.3883 208.336 15.337 209.022 15.337 209.834C15.337 210.674 15.3883 211.379 15.491 211.948C15.603 212.517 15.8223 212.975 16.149 213.32C16.485 213.665 16.9703 213.838 17.605 213.838C18.2303 213.838 18.7063 213.665 19.033 213.32C19.369 212.975 19.5883 212.517 19.691 211.948C19.803 211.379 19.859 210.674 19.859 209.834Z" fill="#7C8DB5"/>
<line x1="38" y1="210" x2="732" y2="210" stroke="#E6EDFF"/>
<path d="M65.992 234.242V241.452C65.992 242.255 65.7447 242.899 65.25 243.384C64.7553 243.86 64.102 244.098 63.29 244.098C62.4687 244.098 61.8107 243.855 61.316 243.37C60.8213 242.875 60.574 242.203 60.574 241.354H61.848C61.8573 241.83 61.9787 242.217 62.212 242.516C62.4547 242.815 62.814 242.964 63.29 242.964C63.766 242.964 64.1207 242.824 64.354 242.544C64.5873 242.255 64.704 241.891 64.704 241.452V234.242H65.992ZM68.0258 240.136C68.0258 239.352 68.1845 238.666 68.5018 238.078C68.8192 237.481 69.2532 237.019 69.8038 236.692C70.3638 236.365 70.9845 236.202 71.6658 236.202C72.3378 236.202 72.9212 236.347 73.4158 236.636C73.9105 236.925 74.2792 237.289 74.5218 237.728V236.328H75.8098V244H74.5218V242.572C74.2698 243.02 73.8918 243.393 73.3878 243.692C72.8932 243.981 72.3145 244.126 71.6518 244.126C70.9705 244.126 70.3545 243.958 69.8038 243.622C69.2532 243.286 68.8192 242.815 68.5018 242.208C68.1845 241.601 68.0258 240.911 68.0258 240.136ZM74.5218 240.15C74.5218 239.571 74.4052 239.067 74.1718 238.638C73.9385 238.209 73.6212 237.882 73.2198 237.658C72.8278 237.425 72.3938 237.308 71.9178 237.308C71.4418 237.308 71.0078 237.42 70.6158 237.644C70.2238 237.868 69.9112 238.195 69.6778 238.624C69.4445 239.053 69.3278 239.557 69.3278 240.136C69.3278 240.724 69.4445 241.237 69.6778 241.676C69.9112 242.105 70.2238 242.437 70.6158 242.67C71.0078 242.894 71.4418 243.006 71.9178 243.006C72.3938 243.006 72.8278 242.894 73.2198 242.67C73.6212 242.437 73.9385 242.105 74.1718 241.676C74.4052 241.237 74.5218 240.729 74.5218 240.15ZM81.7008 236.188C82.6341 236.188 83.3901 236.473 83.9688 237.042C84.5474 237.602 84.8368 238.414 84.8368 239.478V244H83.5768V239.66C83.5768 238.895 83.3854 238.311 83.0028 237.91C82.6201 237.499 82.0974 237.294 81.4348 237.294C80.7628 237.294 80.2261 237.504 79.8248 237.924C79.4328 238.344 79.2368 238.955 79.2368 239.758V244H77.9628V236.328H79.2368V237.42C79.4888 237.028 79.8294 236.725 80.2588 236.51C80.6974 236.295 81.1781 236.188 81.7008 236.188Z" fill="#7C8DB5"/>
<path d="M164.594 234.242V235.278H160.352V238.568H163.796V239.604H160.352V244H159.078V234.242H164.594ZM173.133 239.87C173.133 240.113 173.119 240.369 173.091 240.64H166.959C167.005 241.396 167.262 241.989 167.729 242.418C168.205 242.838 168.779 243.048 169.451 243.048C170.001 243.048 170.459 242.922 170.823 242.67C171.196 242.409 171.457 242.063 171.607 241.634H172.979C172.773 242.371 172.363 242.973 171.747 243.44C171.131 243.897 170.365 244.126 169.451 244.126C168.723 244.126 168.069 243.963 167.491 243.636C166.921 243.309 166.473 242.847 166.147 242.25C165.82 241.643 165.657 240.943 165.657 240.15C165.657 239.357 165.815 238.661 166.133 238.064C166.45 237.467 166.893 237.009 167.463 236.692C168.041 236.365 168.704 236.202 169.451 236.202C170.179 236.202 170.823 236.361 171.383 236.678C171.943 236.995 172.372 237.434 172.671 237.994C172.979 238.545 173.133 239.17 173.133 239.87ZM171.817 239.604C171.817 239.119 171.709 238.703 171.495 238.358C171.28 238.003 170.986 237.737 170.613 237.56C170.249 237.373 169.843 237.28 169.395 237.28C168.751 237.28 168.2 237.485 167.743 237.896C167.295 238.307 167.038 238.876 166.973 239.604H171.817ZM176.088 237.756C176.35 237.299 176.732 236.925 177.236 236.636C177.74 236.347 178.314 236.202 178.958 236.202C179.649 236.202 180.27 236.365 180.82 236.692C181.371 237.019 181.805 237.481 182.122 238.078C182.44 238.666 182.598 239.352 182.598 240.136C182.598 240.911 182.44 241.601 182.122 242.208C181.805 242.815 181.366 243.286 180.806 243.622C180.256 243.958 179.64 244.126 178.958 244.126C178.296 244.126 177.712 243.981 177.208 243.692C176.714 243.403 176.34 243.034 176.088 242.586V244H174.814V233.64H176.088V237.756ZM181.296 240.136C181.296 239.557 181.18 239.053 180.946 238.624C180.713 238.195 180.396 237.868 179.994 237.644C179.602 237.42 179.168 237.308 178.692 237.308C178.226 237.308 177.792 237.425 177.39 237.658C176.998 237.882 176.681 238.213 176.438 238.652C176.205 239.081 176.088 239.581 176.088 240.15C176.088 240.729 176.205 241.237 176.438 241.676C176.681 242.105 176.998 242.437 177.39 242.67C177.792 242.894 178.226 243.006 178.692 243.006C179.168 243.006 179.602 242.894 179.994 242.67C180.396 242.437 180.713 242.105 180.946 241.676C181.18 241.237 181.296 240.724 181.296 240.136Z" fill="#7C8DB5"/>
<path d="M266.976 234.312V244H265.702V236.776L262.482 244H261.586L258.352 236.762V244H257.078V234.312H258.45L262.034 242.32L265.618 234.312H266.976ZM268.661 240.136C268.661 239.352 268.819 238.666 269.137 238.078C269.454 237.481 269.888 237.019 270.439 236.692C270.999 236.365 271.619 236.202 272.301 236.202C272.973 236.202 273.556 236.347 274.051 236.636C274.545 236.925 274.914 237.289 275.157 237.728V236.328H276.445V244H275.157V242.572C274.905 243.02 274.527 243.393 274.023 243.692C273.528 243.981 272.949 244.126 272.287 244.126C271.605 244.126 270.989 243.958 270.439 243.622C269.888 243.286 269.454 242.815 269.137 242.208C268.819 241.601 268.661 240.911 268.661 240.136ZM275.157 240.15C275.157 239.571 275.04 239.067 274.807 238.638C274.573 238.209 274.256 237.882 273.855 237.658C273.463 237.425 273.029 237.308 272.553 237.308C272.077 237.308 271.643 237.42 271.251 237.644C270.859 237.868 270.546 238.195 270.313 238.624C270.079 239.053 269.963 239.557 269.963 240.136C269.963 240.724 270.079 241.237 270.313 241.676C270.546 242.105 270.859 242.437 271.251 242.67C271.643 242.894 272.077 243.006 272.553 243.006C273.029 243.006 273.463 242.894 273.855 242.67C274.256 242.437 274.573 242.105 274.807 241.676C275.04 241.237 275.157 240.729 275.157 240.15ZM279.872 237.574C280.096 237.135 280.413 236.795 280.824 236.552C281.244 236.309 281.752 236.188 282.35 236.188V237.504H282.014C280.586 237.504 279.872 238.279 279.872 239.828V244H278.598V236.328H279.872V237.574Z" fill="#7C8DB5"/>
<path d="M361.846 241.83H357.59L356.806 244H355.462L358.99 234.298H360.46L363.974 244H362.63L361.846 241.83ZM361.482 240.794L359.718 235.866L357.954 240.794H361.482ZM366.786 237.742C367.038 237.303 367.411 236.939 367.906 236.65C368.41 236.351 368.993 236.202 369.656 236.202C370.337 236.202 370.953 236.365 371.504 236.692C372.064 237.019 372.502 237.481 372.82 238.078C373.137 238.666 373.296 239.352 373.296 240.136C373.296 240.911 373.137 241.601 372.82 242.208C372.502 242.815 372.064 243.286 371.504 243.622C370.953 243.958 370.337 244.126 369.656 244.126C369.002 244.126 368.424 243.981 367.92 243.692C367.425 243.393 367.047 243.025 366.786 242.586V247.64H365.512V236.328H366.786V237.742ZM371.994 240.136C371.994 239.557 371.877 239.053 371.644 238.624C371.41 238.195 371.093 237.868 370.692 237.644C370.3 237.42 369.866 237.308 369.39 237.308C368.923 237.308 368.489 237.425 368.088 237.658C367.696 237.882 367.378 238.213 367.136 238.652C366.902 239.081 366.786 239.581 366.786 240.15C366.786 240.729 366.902 241.237 367.136 241.676C367.378 242.105 367.696 242.437 368.088 242.67C368.489 242.894 368.923 243.006 369.39 243.006C369.866 243.006 370.3 242.894 370.692 242.67C371.093 242.437 371.41 242.105 371.644 241.676C371.877 241.237 371.994 240.724 371.994 240.136ZM376.247 237.574C376.471 237.135 376.788 236.795 377.199 236.552C377.619 236.309 378.127 236.188 378.725 236.188V237.504H378.389C376.961 237.504 376.247 238.279 376.247 239.828V244H374.973V236.328H376.247V237.574Z" fill="#7C8DB5"/>
<path d="M462.976 234.312V244H461.702V236.776L458.482 244H457.586L454.352 236.762V244H453.078V234.312H454.45L458.034 242.32L461.618 234.312H462.976ZM464.661 240.136C464.661 239.352 464.819 238.666 465.137 238.078C465.454 237.481 465.888 237.019 466.439 236.692C466.999 236.365 467.619 236.202 468.301 236.202C468.973 236.202 469.556 236.347 470.051 236.636C470.545 236.925 470.914 237.289 471.157 237.728V236.328H472.445V244H471.157V242.572C470.905 243.02 470.527 243.393 470.023 243.692C469.528 243.981 468.949 244.126 468.287 244.126C467.605 244.126 466.989 243.958 466.439 243.622C465.888 243.286 465.454 242.815 465.137 242.208C464.819 241.601 464.661 240.911 464.661 240.136ZM471.157 240.15C471.157 239.571 471.04 239.067 470.807 238.638C470.573 238.209 470.256 237.882 469.855 237.658C469.463 237.425 469.029 237.308 468.553 237.308C468.077 237.308 467.643 237.42 467.251 237.644C466.859 237.868 466.546 238.195 466.313 238.624C466.079 239.053 465.963 239.557 465.963 240.136C465.963 240.724 466.079 241.237 466.313 241.676C466.546 242.105 466.859 242.437 467.251 242.67C467.643 242.894 468.077 243.006 468.553 243.006C469.029 243.006 469.463 242.894 469.855 242.67C470.256 242.437 470.573 242.105 470.807 241.676C471.04 241.237 471.157 240.729 471.157 240.15ZM481.206 236.328L476.586 247.612H475.27L476.782 243.916L473.688 236.328H475.102L477.51 242.544L479.89 236.328H481.206Z" fill="#7C8DB5"/>
<path d="M559.992 234.242V241.452C559.992 242.255 559.745 242.899 559.25 243.384C558.755 243.86 558.102 244.098 557.29 244.098C556.469 244.098 555.811 243.855 555.316 243.37C554.821 242.875 554.574 242.203 554.574 241.354H555.848C555.857 241.83 555.979 242.217 556.212 242.516C556.455 242.815 556.814 242.964 557.29 242.964C557.766 242.964 558.121 242.824 558.354 242.544C558.587 242.255 558.704 241.891 558.704 241.452V234.242H559.992ZM569.306 236.328V244H568.032V242.866C567.789 243.258 567.448 243.566 567.01 243.79C566.58 244.005 566.104 244.112 565.582 244.112C564.984 244.112 564.448 243.991 563.972 243.748C563.496 243.496 563.118 243.123 562.838 242.628C562.567 242.133 562.432 241.531 562.432 240.822V236.328H563.692V240.654C563.692 241.41 563.883 241.993 564.266 242.404C564.648 242.805 565.171 243.006 565.834 243.006C566.515 243.006 567.052 242.796 567.444 242.376C567.836 241.956 568.032 241.345 568.032 240.542V236.328H569.306ZM575.195 236.188C576.128 236.188 576.884 236.473 577.463 237.042C578.042 237.602 578.331 238.414 578.331 239.478V244H577.071V239.66C577.071 238.895 576.88 238.311 576.497 237.91C576.114 237.499 575.592 237.294 574.929 237.294C574.257 237.294 573.72 237.504 573.319 237.924C572.927 238.344 572.731 238.955 572.731 239.758V244H571.457V236.328H572.731V237.42C572.983 237.028 573.324 236.725 573.753 236.51C574.192 236.295 574.672 236.188 575.195 236.188Z" fill="#7C8DB5"/>
<path d="M657.992 234.242V241.452C657.992 242.255 657.745 242.899 657.25 243.384C656.755 243.86 656.102 244.098 655.29 244.098C654.469 244.098 653.811 243.855 653.316 243.37C652.821 242.875 652.574 242.203 652.574 241.354H653.848C653.857 241.83 653.979 242.217 654.212 242.516C654.455 242.815 654.814 242.964 655.29 242.964C655.766 242.964 656.121 242.824 656.354 242.544C656.587 242.255 656.704 241.891 656.704 241.452V234.242H657.992ZM667.306 236.328V244H666.032V242.866C665.789 243.258 665.448 243.566 665.01 243.79C664.58 244.005 664.104 244.112 663.582 244.112C662.984 244.112 662.448 243.991 661.972 243.748C661.496 243.496 661.118 243.123 660.838 242.628C660.567 242.133 660.432 241.531 660.432 240.822V236.328H661.692V240.654C661.692 241.41 661.883 241.993 662.266 242.404C662.648 242.805 663.171 243.006 663.834 243.006C664.515 243.006 665.052 242.796 665.444 242.376C665.836 241.956 666.032 241.345 666.032 240.542V236.328H667.306ZM670.731 233.64V244H669.457V233.64H670.731Z" fill="#7C8DB5"/>
<path d="M286 29H313V202C313 206.418 309.418 210 305 210H294C289.582 210 286 206.418 286 202V29Z" fill="url(#paint0_linear_69_803)"/>
<path d="M40.0786 142.516C39.528 142.472 39.0465 142.883 39.0031 143.434C38.9597 143.984 39.3708 144.466 39.9214 144.509L40.0786 142.516ZM61.2927 151.824L61.9603 151.079L61.2927 151.824ZM91.204 162.213L90.2145 162.068L91.204 162.213ZM100.836 157.538L101.455 156.752C101.441 156.741 101.427 156.731 101.412 156.72L100.836 157.538ZM723.395 105.073L722.557 105.618L723.395 105.073ZM730.586 112.736C731.088 112.965 731.681 112.743 731.91 112.24C732.139 111.738 731.917 111.145 731.414 110.916L730.586 112.736ZM39.9214 144.509C42.0387 144.676 45.6608 145.284 49.5473 146.566C53.4395 147.85 57.5219 149.786 60.6252 152.568L61.9603 151.079C58.5744 148.044 54.2073 145.997 50.1738 144.667C46.1347 143.334 42.355 142.695 40.0786 142.516L39.9214 144.509ZM60.6252 152.568C64.7321 156.25 71.9084 161.506 78.29 164.544C81.4551 166.051 84.5702 167.085 87.0656 166.994C88.3367 166.948 89.5268 166.608 90.4638 165.808C91.4078 165.003 91.9776 163.832 92.1934 162.358L90.2145 162.068C90.0501 163.191 89.6535 163.871 89.1657 164.287C88.6709 164.709 87.9638 164.961 86.9932 164.996C85.005 165.068 82.2583 164.218 79.1497 162.738C72.9838 159.803 65.9649 154.67 61.9603 151.079L60.6252 152.568ZM92.1934 162.358C92.4821 160.386 93.0232 159.115 93.6357 158.317C94.2329 157.538 94.9285 157.165 95.6509 157.026C97.1784 156.733 99.0001 157.467 100.261 158.355L101.412 156.72C99.9689 155.703 97.5827 154.619 95.2741 155.062C94.0785 155.292 92.949 155.925 92.0485 157.1C91.1633 158.254 90.5342 159.884 90.2145 162.068L92.1934 162.358ZM100.217 158.323C101.364 159.227 103.223 160.455 105.095 161.195C106.029 161.564 107.028 161.836 107.976 161.849C108.938 161.863 109.924 161.606 110.678 160.833L109.246 159.437C108.986 159.703 108.599 159.858 108.003 159.849C107.393 159.841 106.649 159.658 105.83 159.335C104.196 158.689 102.506 157.58 101.455 156.752L100.217 158.323ZM110.678 160.833C111.128 160.372 111.529 159.625 111.896 158.821C112.28 157.981 112.684 156.944 113.109 155.8C113.969 153.487 114.92 150.721 116.023 147.976C117.125 145.234 118.344 142.604 119.7 140.609C121.085 138.572 122.459 137.425 123.795 137.23L123.505 135.251C121.292 135.575 119.498 137.349 118.046 139.485C116.567 141.662 115.283 144.453 114.167 147.23C113.052 150.005 112.07 152.855 111.235 155.103C110.812 156.24 110.429 157.22 110.077 157.99C109.71 158.794 109.429 159.249 109.246 159.437L110.678 160.833ZM123.795 137.23C125.4 136.995 126.121 137.32 126.505 137.682C126.949 138.101 127.205 138.793 127.425 139.825C127.621 140.743 127.797 142.028 128.214 143.047C128.674 144.17 129.492 145.176 131.033 145.526L131.477 143.576C130.736 143.408 130.35 142.985 130.065 142.289C129.738 141.491 129.629 140.568 129.381 139.408C129.158 138.362 128.811 137.107 127.877 136.227C126.883 135.29 125.448 134.966 123.505 135.251L123.795 137.23ZM131.033 145.526C133.866 146.172 135.877 144.494 137.438 143.086C138.267 142.338 138.973 141.659 139.732 141.14C140.469 140.637 141.16 140.357 141.901 140.357V138.357C140.614 138.357 139.531 138.856 138.604 139.489C137.7 140.106 136.853 140.921 136.098 141.601C134.491 143.051 133.206 143.97 131.477 143.576L131.033 145.526ZM141.901 140.357C142.175 140.357 142.534 140.455 143.005 140.718C143.472 140.98 143.991 141.372 144.569 141.878C145.748 142.912 146.979 144.241 148.426 145.656C149.832 147.031 151.393 148.434 153.089 149.424C154.794 150.42 156.704 151.039 158.776 150.735L158.486 148.756C157.009 148.973 155.561 148.552 154.097 147.697C152.624 146.837 151.207 145.578 149.824 144.226C148.483 142.914 147.116 141.451 145.887 140.374C145.261 139.825 144.623 139.332 143.982 138.973C143.343 138.616 142.641 138.357 141.901 138.357V140.357ZM158.776 150.735C162.275 150.223 165.331 150.23 168.33 150.029C171.284 149.832 174.111 149.432 176.831 148.039L175.919 146.259C173.569 147.463 171.073 147.842 168.197 148.034C165.365 148.223 162.085 148.23 158.486 148.756L158.776 150.735ZM176.831 148.039C179.745 146.546 180.613 144.255 181.147 142.133C181.422 141.04 181.584 140.131 181.888 139.206C182.176 138.327 182.556 137.572 183.174 136.939L181.743 135.542C180.84 136.467 180.333 137.53 179.987 138.583C179.657 139.589 179.439 140.725 179.207 141.645C178.728 143.549 178.074 145.154 175.919 146.259L176.831 148.039ZM183.174 136.939C183.882 136.214 184.721 135.535 185.625 134.842C186.51 134.164 187.482 133.454 188.359 132.722C190.108 131.263 191.767 129.49 192.07 127.011L190.084 126.769C189.88 128.446 188.751 129.79 187.077 131.187C186.243 131.883 185.346 132.537 184.409 133.255C183.491 133.958 182.556 134.708 181.743 135.542L183.174 136.939ZM192.07 127.011C192.319 124.968 192.941 121.286 194.108 118.076C194.693 116.468 195.394 115.037 196.213 113.993C197.032 112.949 197.888 112.393 198.784 112.301L198.58 110.312C196.94 110.479 195.642 111.481 194.639 112.759C193.636 114.037 192.848 115.689 192.228 117.393C190.988 120.806 190.342 124.656 190.084 126.769L192.07 127.011ZM198.784 112.301C200.992 112.075 201.874 112.703 203.577 113.509C205.373 114.358 207.694 115.171 212.427 114.902L212.313 112.905C207.921 113.155 205.932 112.41 204.432 111.701C202.84 110.948 201.441 110.018 198.58 110.312L198.784 112.301ZM212.427 114.902C214.723 114.771 216.516 114.607 217.931 114.495C219.367 114.38 220.37 114.323 221.169 114.381C221.935 114.438 222.47 114.598 222.971 114.903C223.497 115.224 224.047 115.742 224.784 116.623L226.318 115.34C225.534 114.403 224.817 113.687 224.012 113.196C223.182 112.69 222.323 112.461 221.315 112.387C220.34 112.315 219.188 112.388 217.772 112.501C216.335 112.615 214.579 112.776 212.313 112.905L212.427 114.902ZM224.784 116.623C225.476 117.45 226.101 118.51 226.748 119.698C227.378 120.855 228.039 122.157 228.754 123.322C230.169 125.628 232.076 127.89 235.183 127.89V125.89C233.221 125.89 231.833 124.515 230.459 122.276C229.78 121.169 229.174 119.971 228.505 118.742C227.852 117.544 227.147 116.331 226.318 115.34L224.784 116.623ZM235.183 127.89C236.327 127.89 236.816 128.125 237.065 128.335C237.334 128.563 237.501 128.903 237.723 129.551C237.925 130.142 238.173 131.002 238.69 131.811C239.233 132.661 240.049 133.437 241.36 134.033L242.188 132.213C241.218 131.771 240.703 131.248 240.375 130.734C240.021 130.18 239.857 129.612 239.615 128.904C239.393 128.253 239.085 127.425 238.356 126.808C237.606 126.174 236.575 125.89 235.183 125.89V127.89ZM241.36 134.033C243.736 135.116 245.521 135.478 247.436 134.929C249.226 134.415 251.033 133.115 253.51 131.339L252.345 129.714C249.752 131.573 248.264 132.611 246.885 133.006C245.631 133.366 244.375 133.209 242.188 132.213L241.36 134.033ZM253.51 131.339C254.284 130.784 255.059 129.867 255.829 128.792C256.612 127.698 257.447 126.356 258.326 124.877C260.101 121.889 262.05 118.354 264.23 114.891C266.404 111.437 268.745 108.158 271.232 105.751C273.731 103.332 276.249 101.917 278.783 101.917V99.9172C275.486 99.9172 272.491 101.749 269.841 104.314C267.179 106.89 264.736 110.332 262.537 113.825C260.345 117.309 258.333 120.95 256.607 123.855C255.735 125.322 254.934 126.605 254.203 127.628C253.457 128.669 252.838 129.359 252.345 129.714L253.51 131.339ZM278.783 101.917C284.783 101.917 287.319 100.833 289.626 100.045C290.73 99.6682 291.744 99.3745 293.107 99.2853C294.482 99.1954 296.261 99.3116 298.87 99.8209L299.253 97.8579C296.539 97.3282 294.579 97.1848 292.976 97.2896C291.36 97.3953 290.156 97.7509 288.979 98.1528C286.723 98.9232 284.443 99.9172 278.783 99.9172V101.917ZM298.87 99.8209C301.545 100.343 303.598 100.646 305.209 100.723C306.816 100.799 308.068 100.655 309.092 100.211C310.144 99.7551 310.848 99.0293 311.439 98.1588C311.999 97.333 312.52 96.2707 313.122 95.1604L311.364 94.2071C310.698 95.4344 310.269 96.32 309.783 97.0364C309.328 97.708 308.891 98.1185 308.296 98.3764C307.672 98.6468 306.77 98.7949 305.304 98.7252C303.841 98.6557 301.901 98.3748 299.253 97.8579L298.87 99.8209ZM313.122 95.1604C315.59 90.6085 319.889 86.3336 325.424 86.3336V84.3336C318.792 84.3336 313.965 89.4088 311.364 94.2071L313.122 95.1604ZM325.424 86.3336C328.359 86.3336 331.898 87.0864 335.594 87.6843C339.185 88.2653 342.943 88.7014 345.972 87.855L345.434 85.9288C342.886 86.6408 339.546 86.2977 335.913 85.71C332.385 85.1391 328.572 84.3336 325.424 84.3336V86.3336ZM345.972 87.855C347.568 87.4092 349.091 86.3943 350.523 85.2339C351.955 84.0734 353.411 82.6674 354.805 81.3978C356.226 80.1029 357.605 78.9289 358.978 78.1077C360.347 77.2884 361.623 76.8746 362.855 76.9798L363.025 74.987C361.215 74.8324 359.512 75.4576 357.951 76.3914C356.393 77.3234 354.888 78.6168 353.458 79.9192C352 81.2469 350.636 82.568 349.264 83.6801C347.891 84.7923 346.626 85.5955 345.434 85.9288L345.972 87.855ZM362.855 76.9798C365.678 77.2209 366.356 77.8882 368.042 78.6482C369.806 79.4434 372.245 80.1001 378.149 80.1001V78.1001C372.392 78.1001 370.269 77.4582 368.864 76.8249C367.381 76.1564 366.285 75.2654 363.025 74.987L362.855 76.9798ZM378.149 80.1001C381.297 80.1001 383.474 79.1411 385.135 77.6327C386.74 76.1747 387.815 74.2348 388.838 72.4562C389.891 70.6264 390.912 68.9155 392.427 67.5778C393.91 66.2697 395.919 65.2767 399.013 65.0328L398.856 63.039C395.36 63.3146 392.933 64.4644 391.104 66.0782C389.309 67.6624 388.144 69.6527 387.105 71.4591C386.036 73.3166 385.116 74.948 383.79 76.1522C382.52 77.3059 380.831 78.1001 378.149 78.1001V80.1001ZM399.013 65.0328C402.013 64.7964 404.964 65.8534 407.922 67.7221C410.884 69.5932 413.767 72.2233 416.613 75.0097C419.428 77.7664 422.235 80.706 424.943 83.0536C427.641 85.393 430.405 87.2972 433.208 87.8716L433.609 85.9123C431.343 85.4478 428.91 83.8457 426.253 81.5424C423.606 79.2474 420.9 76.4081 418.012 73.5806C415.154 70.7829 412.144 68.0236 408.99 66.0313C405.833 64.0365 402.447 62.756 398.856 63.039L399.013 65.0328ZM433.208 87.8716C438.652 88.9871 443.37 86.8732 447.622 84.6624C449.786 83.5369 451.798 82.4022 453.836 81.5289C455.857 80.6627 457.806 80.1001 459.771 80.1001V78.1001C457.427 78.1001 455.193 78.7712 453.048 79.6906C450.919 80.603 448.78 81.8058 446.699 82.888C442.459 85.0925 438.305 86.8746 433.609 85.9123L433.208 87.8716ZM459.771 80.1001C461.697 80.1001 463.653 80.7683 465.735 81.8467C467.826 82.9295 469.938 84.3672 472.218 85.8476C476.697 88.7569 481.765 91.8035 487.701 91.527L487.608 89.5292C482.391 89.7722 477.826 87.1048 473.307 84.1702C471.087 82.7286 468.858 81.212 466.655 80.0708C464.444 78.9254 462.155 78.1001 459.771 78.1001V80.1001ZM487.701 91.527C490.604 91.3918 492.708 90.8134 494.373 89.9872C496.031 89.1642 497.197 88.1212 498.221 87.1702C499.263 86.2025 500.116 85.3764 501.25 84.759C502.353 84.1589 503.769 83.7363 505.905 83.7363V81.7363C503.479 81.7363 501.727 82.2227 500.294 83.0024C498.894 83.7648 497.846 84.7893 496.86 85.7046C495.856 86.6367 494.867 87.5091 493.484 88.1957C492.106 88.8792 490.282 89.4047 487.608 89.5292L487.701 91.527ZM505.905 83.7363C510.11 83.7363 512.411 85.4903 515.001 87.4323C517.631 89.4039 520.517 91.5281 525.677 91.5281V89.5281C521.205 89.5281 518.768 87.7564 516.201 85.8321C513.595 83.8782 510.826 81.7363 505.905 81.7363V83.7363ZM525.677 91.5281C530.839 91.5281 533.732 89.409 535.928 87.3639C537.052 86.3171 537.851 85.4413 538.76 84.7491C539.611 84.1002 540.416 83.7363 541.393 83.7363V81.7363C539.835 81.7363 538.613 82.3464 537.547 83.1584C536.539 83.9271 535.532 84.9993 534.565 85.9005C532.578 87.7513 530.148 89.5281 525.677 89.5281V91.5281ZM541.393 83.7363C543.955 83.7363 547.064 83.6057 550.001 83.0708C552.911 82.5406 555.79 81.5901 557.769 79.8515L556.449 78.3488C554.88 79.7269 552.435 80.5944 549.642 81.1032C546.876 81.6072 543.901 81.7363 541.393 81.7363V83.7363ZM557.769 79.8515C558.665 79.0647 559.717 77.993 560.693 77.078C561.713 76.1206 562.72 75.2639 563.69 74.7085C564.665 74.15 565.46 73.978 566.126 74.151C566.777 74.3203 567.574 74.8923 568.391 76.4486L570.162 75.5182C569.205 73.698 568.038 72.5817 566.629 72.2154C565.235 71.8527 563.875 72.2976 562.696 72.9728C561.511 73.6511 560.363 74.6449 559.324 75.6192C558.24 76.6359 557.328 77.5772 556.449 78.3488L557.769 79.8515ZM568.391 76.4486C569.265 78.1114 570.134 80.0518 571.073 82.0429C572.002 84.0098 572.992 86.0099 574.076 87.6932C575.147 89.3567 576.386 90.8324 577.859 91.6208C579.424 92.4584 581.16 92.4687 582.971 91.3865L581.945 89.6697C580.714 90.4056 579.725 90.351 578.803 89.8574C577.789 89.3148 576.777 88.1932 575.757 86.6101C574.75 85.0468 573.808 83.151 572.882 81.1895C571.968 79.2522 571.062 77.2318 570.162 75.5182L568.391 76.4486ZM582.971 91.3865C585.815 89.6864 588.441 89.3724 590.726 90.0575C593.03 90.7485 595.134 92.5008 596.817 95.2113L598.516 94.1561C596.651 91.1527 594.192 89.0091 591.3 88.1418C588.388 87.2684 585.184 87.7336 581.945 89.6697L582.971 91.3865ZM596.817 95.2113C597.679 96.5987 598.574 98.3692 599.569 100.276C600.551 102.158 601.619 104.152 602.795 105.892C603.963 107.621 605.294 109.188 606.836 110.143C608.429 111.13 610.248 111.459 612.229 110.678L611.495 108.818C610.181 109.336 609.021 109.145 607.889 108.443C606.706 107.71 605.566 106.421 604.452 104.773C603.347 103.137 602.324 101.234 601.342 99.3509C600.372 97.4914 599.429 95.6258 598.516 94.1561L596.817 95.2113ZM612.229 110.678C615.239 109.492 618.088 110.08 621.523 110.418C624.911 110.752 628.617 110.769 632.705 107.976L631.577 106.325C628.06 108.727 624.922 108.744 621.719 108.428C618.564 108.117 615.076 107.407 611.495 108.818L612.229 110.678ZM632.705 107.976C634.635 106.658 636.543 105.135 638.356 103.749C640.193 102.346 641.941 101.076 643.636 100.177C645.332 99.2775 646.887 98.7962 648.344 98.8722C649.764 98.9463 651.217 99.5578 652.718 101.096L654.149 99.6993C652.355 97.8612 650.449 96.9793 648.448 96.8749C646.482 96.7723 644.552 97.4273 642.699 98.4106C640.845 99.3943 638.981 100.754 637.142 102.16C635.28 103.582 633.449 105.046 631.577 106.325L632.705 107.976ZM652.718 101.096C655.984 104.443 658.391 106.925 661.753 108.51C665.125 110.099 669.362 110.748 676.247 110.748V108.748C669.445 108.748 665.57 108.098 662.605 106.701C659.63 105.298 657.474 103.106 654.149 99.6993L652.718 101.096ZM676.247 110.748C679.65 110.748 682.423 110.845 684.808 110.926C687.184 111.007 689.201 111.073 691.049 111.007C694.806 110.872 697.865 110.186 702.052 108.041L701.14 106.261C697.215 108.271 694.443 108.884 690.977 109.008C689.212 109.072 687.269 109.009 684.876 108.927C682.492 108.846 679.688 108.748 676.247 108.748V110.748ZM702.052 108.041C706.04 105.997 710.623 104.354 714.539 103.79C716.499 103.508 718.236 103.504 719.627 103.816C721.009 104.127 721.98 104.731 722.557 105.618L724.234 104.527C723.29 103.078 721.79 102.253 720.066 101.865C718.352 101.48 716.35 101.508 714.254 101.81C710.059 102.415 705.263 104.148 701.14 106.261L702.052 108.041ZM722.557 105.618C725.117 109.553 728.935 111.984 730.586 112.736L731.414 110.916C730.024 110.282 726.54 108.073 724.234 104.527L722.557 105.618Z" fill="#FF9500"/>
<path d="M39.5459 177.109C39.0538 177.36 38.8583 177.962 39.1091 178.454C39.3599 178.946 39.9621 179.142 40.4541 178.891L39.5459 177.109ZM731.221 77.9753C731.76 77.8533 732.097 77.3177 731.975 76.7791C731.853 76.2404 731.318 75.9027 730.779 76.0247L731.221 77.9753ZM40.4541 178.891C41.7107 178.25 42.6864 177.062 43.5081 175.826C44.3239 174.6 45.1227 173.103 45.8756 171.845C46.6629 170.528 47.4394 169.397 48.3095 168.623C49.1502 167.876 50.03 167.503 51.0857 167.601L51.2702 165.609C49.5314 165.448 48.1248 166.111 46.9808 167.128C45.8661 168.119 44.9596 169.48 44.1592 170.818C43.3243 172.214 42.6306 173.534 41.8427 174.719C41.0607 175.895 40.3217 176.714 39.5459 177.109L40.4541 178.891ZM51.0857 167.601C52.4515 167.727 53.6566 167.917 54.8078 168.081C55.9427 168.243 57.0378 168.382 58.1006 168.382C60.3096 168.382 62.3263 167.777 64.5458 165.798L63.2145 164.305C61.3693 165.951 59.8293 166.382 58.1006 166.382C57.1946 166.382 56.2256 166.263 55.0901 166.101C53.9707 165.941 52.6989 165.742 51.2702 165.609L51.0857 167.601ZM64.5458 165.798C65.62 164.839 66.773 163.526 67.9508 162.148C69.1453 160.751 70.3781 159.271 71.6602 157.9C72.9425 156.529 74.233 155.313 75.5159 154.444C76.8031 153.572 78.0037 153.103 79.1228 153.103V151.103C77.4474 151.103 75.8535 151.799 74.3939 152.788C72.9299 153.78 71.5212 155.121 70.1995 156.534C68.8776 157.948 67.6018 159.478 66.4305 160.849C65.2426 162.239 64.1727 163.45 63.2145 164.305L64.5458 165.798ZM79.1228 153.103C80.6976 153.103 82.5471 152.599 84.3838 151.973C86.2176 151.347 88.2238 150.528 90.0119 149.868C91.8544 149.188 93.5012 148.662 94.8157 148.507C96.1648 148.348 96.7989 148.617 97.1031 149.051L98.741 147.903C97.775 146.524 96.1227 146.34 94.5821 146.521C93.0068 146.706 91.1605 147.312 89.3194 147.992C87.4238 148.692 85.5558 149.459 83.7378 150.08C81.9226 150.699 80.3425 151.103 79.1228 151.103V153.103ZM97.1031 149.051C97.8529 150.121 99.2262 151.242 100.86 152.289C102.519 153.353 104.541 154.398 106.683 155.292C110.915 157.057 115.83 158.315 119.417 157.752L119.107 155.776C116.088 156.25 111.604 155.177 107.453 153.446C105.403 152.591 103.487 151.597 101.939 150.605C100.365 149.596 99.2614 148.646 98.741 147.903L97.1031 149.051ZM119.417 157.752C122.958 157.197 123.743 155.691 124.732 155.096C125.808 154.447 128.022 153.871 135.931 154.652L136.127 152.661C128.284 151.888 125.417 152.348 123.7 153.383C121.894 154.47 122.171 155.296 119.107 155.776L119.417 157.752ZM135.931 154.652C139.854 155.039 141.906 155.42 143.06 155.757C143.626 155.923 143.957 156.072 144.177 156.195C144.415 156.328 144.529 156.427 144.788 156.61C145.048 156.793 145.352 156.979 145.812 157.137C146.251 157.287 146.803 157.401 147.558 157.49C149.059 157.668 151.526 157.764 155.844 157.764V155.764C151.525 155.764 149.165 155.666 147.792 155.504C147.111 155.423 146.713 155.331 146.459 155.244C146.228 155.165 146.094 155.084 145.941 154.976C145.788 154.867 145.513 154.651 145.153 154.45C144.776 154.239 144.301 154.036 143.621 153.838C142.282 153.446 140.079 153.051 136.127 152.661L135.931 154.652ZM155.844 157.764C164.2 157.764 169.72 160.88 174.268 163.521C176.515 164.825 178.635 166.084 180.717 166.684C182.879 167.307 185.037 167.236 187.335 165.919L186.34 164.184C184.573 165.197 182.984 165.256 181.271 164.762C179.48 164.246 177.599 163.141 175.272 161.791C170.675 159.122 164.763 155.764 155.844 155.764V157.764ZM187.335 165.919C189.735 164.543 190.81 162.094 191.38 159.451C191.943 156.836 192.065 153.728 192.342 150.905C192.627 148.001 193.076 145.332 194.217 143.243C195.32 141.223 197.099 139.692 200.233 139.101L199.862 137.135C196.138 137.838 193.852 139.739 192.462 142.284C191.11 144.759 190.638 147.787 190.352 150.71C190.057 153.715 189.956 156.563 189.425 159.03C188.899 161.469 188.005 163.229 186.34 164.184L187.335 165.919ZM200.233 139.101C207.018 137.82 209.586 138.115 212.182 139.173C213.576 139.742 214.921 140.503 216.975 141.495C218.985 142.466 221.535 143.584 225.141 144.766L225.764 142.865C222.256 141.716 219.789 140.633 217.845 139.694C215.945 138.776 214.401 137.918 212.937 137.321C209.817 136.049 206.795 135.826 199.862 137.135L200.233 139.101ZM225.141 144.766C229.069 146.053 233.022 145.017 236.763 142.96C240.499 140.905 244.164 137.755 247.598 134.579C251.072 131.365 254.281 128.155 257.228 125.806C258.693 124.638 260.043 123.725 261.274 123.152C262.507 122.578 263.539 122.382 264.408 122.529L264.742 120.558C263.324 120.317 261.863 120.671 260.429 121.339C258.993 122.008 257.501 123.03 255.981 124.242C252.958 126.651 249.625 129.98 246.24 133.111C242.814 136.279 239.303 139.28 235.799 141.207C232.3 143.132 228.949 143.909 225.764 142.865L225.141 144.766ZM264.408 122.529C266.547 122.893 268.249 123.65 269.722 124.459C270.468 124.869 271.139 125.283 271.807 125.68C272.46 126.069 273.113 126.446 273.762 126.732C275.099 127.321 276.517 127.567 278.083 126.815C279.549 126.112 281.007 124.594 282.68 122.101L281.02 120.986C279.391 123.413 278.181 124.55 277.218 125.012C276.355 125.426 275.581 125.348 274.569 124.902C274.042 124.67 273.481 124.35 272.83 123.962C272.194 123.583 271.472 123.139 270.685 122.707C269.094 121.833 267.176 120.971 264.742 120.558L264.408 122.529ZM282.68 122.101C284.406 119.53 285.678 116.42 286.751 113.245C287.813 110.103 288.733 106.719 289.663 103.782C290.613 100.777 291.597 98.154 292.837 96.2278C294.066 94.3187 295.459 93.2236 297.212 93.0134L296.974 91.0276C294.407 91.3354 292.562 92.9595 291.155 95.1454C289.759 97.3142 288.71 100.162 287.756 103.178C286.78 106.262 285.922 109.45 284.856 112.604C283.802 115.725 282.597 118.636 281.02 120.986L282.68 122.101ZM297.212 93.0134C301.441 92.5062 307.815 92.5064 313.482 93.5855C316.315 94.1251 318.922 94.9252 320.984 96.0333C323.049 97.1436 324.479 98.5136 325.123 100.155L326.985 99.4245C326.104 97.1813 324.231 95.5084 321.931 94.2717C319.626 93.0328 316.803 92.182 313.856 91.6209C307.964 90.4988 301.382 90.499 296.974 91.0276L297.212 93.0134ZM325.123 100.155C325.858 102.03 326.353 103.947 326.822 105.833C327.284 107.695 327.728 109.561 328.358 111.216C328.992 112.884 329.843 114.422 331.174 115.612C332.518 116.814 334.276 117.596 336.604 117.875L336.843 115.889C334.852 115.65 333.498 115.007 332.508 114.122C331.505 113.224 330.8 112.011 330.227 110.505C329.65 108.988 329.237 107.261 328.763 105.351C328.295 103.467 327.773 101.434 326.985 99.4245L325.123 100.155ZM336.604 117.875C341.24 118.431 345.333 116.472 349.547 114.766C353.824 113.035 358.456 111.432 364.547 112.177L364.79 110.192C358.179 109.383 353.157 111.147 348.797 112.912C344.373 114.703 340.845 116.369 336.843 115.889L336.604 117.875ZM364.547 112.177C367.669 112.559 369.595 113.093 370.845 113.645C372.064 114.184 372.665 114.75 373.126 115.276C373.554 115.763 374.089 116.545 374.936 117.063C375.837 117.615 377.036 117.882 378.895 117.882V115.882C377.197 115.882 376.427 115.631 375.979 115.357C375.476 115.05 375.281 114.699 374.629 113.956C374.011 113.252 373.182 112.491 371.654 111.816C370.157 111.154 368.018 110.587 364.79 110.192L364.547 112.177ZM378.895 117.882C382.928 117.882 386.001 114.95 388.373 112.532C389.618 111.264 390.66 110.14 391.654 109.369C392.66 108.589 393.344 108.389 393.891 108.528L394.384 106.59C392.899 106.211 391.551 106.918 390.428 107.789C389.295 108.668 388.114 109.94 386.945 111.132C384.491 113.634 381.974 115.882 378.895 115.882V117.882ZM393.891 108.528C395.705 108.99 397.592 110.171 399.293 111.781C400.987 113.385 402.439 115.361 403.401 117.322L405.197 116.442C404.127 114.26 402.53 112.092 400.668 110.329C398.812 108.572 396.634 107.163 394.384 106.59L393.891 108.528ZM403.401 117.322C403.878 118.294 404.273 119.404 404.671 120.571C405.06 121.715 405.457 122.929 405.921 124.01C406.823 126.113 408.203 128.241 410.904 128.241V126.241C409.541 126.241 408.634 125.261 407.759 123.221C407.333 122.23 406.968 121.113 406.564 119.926C406.167 118.763 405.737 117.542 405.197 116.442L403.401 117.322ZM410.904 128.241C411.338 128.241 411.812 128.535 412.359 129.546C412.893 130.531 413.307 131.849 413.765 133.249C414.195 134.566 414.683 136.023 415.377 136.998C415.735 137.501 416.219 137.982 416.882 138.203C417.577 138.434 418.294 138.323 418.98 137.973L418.072 136.191C417.741 136.359 417.585 136.329 417.514 136.305C417.411 136.271 417.236 136.161 417.006 135.839C416.525 135.163 416.124 134.03 415.666 132.628C415.234 131.308 414.759 129.777 414.118 128.594C413.49 127.436 412.503 126.241 410.904 126.241V128.241ZM418.98 137.973C420.879 137.005 421.648 137.215 422.756 136.955C423.378 136.808 423.926 136.508 424.406 135.851C424.831 135.27 425.188 134.428 425.573 133.249L423.672 132.628C423.296 133.78 423.017 134.362 422.791 134.671C422.62 134.905 422.502 134.96 422.298 135.008C421.755 135.136 420.238 135.087 418.072 136.191L418.98 137.973ZM425.573 133.249C425.961 132.065 426.381 130.582 426.829 129.061C427.28 127.526 427.765 125.932 428.294 124.474C428.826 123.007 429.384 121.727 429.97 120.798C430.589 119.816 431.085 119.475 431.395 119.422L431.06 117.45C429.847 117.656 428.945 118.674 428.278 119.731C427.578 120.842 426.961 122.282 426.414 123.792C425.863 125.312 425.363 126.956 424.91 128.496C424.453 130.05 424.047 131.481 423.672 132.628L425.573 133.249ZM431.395 119.422C432.199 119.285 432.739 119.148 433.151 119.038C433.579 118.925 433.776 118.871 433.997 118.848C434.422 118.805 435.003 118.876 437.078 119.405L437.572 117.467C435.582 116.96 434.639 116.772 433.794 116.858C433.38 116.901 433.005 117.008 432.639 117.105C432.258 117.206 431.782 117.327 431.06 117.45L431.395 119.422ZM437.078 119.405C439.153 119.934 441.035 120.125 442.522 119.647C443.291 119.399 443.957 118.971 444.467 118.33C444.971 117.696 445.278 116.909 445.425 116.007L443.451 115.685C443.345 116.337 443.144 116.78 442.901 117.085C442.664 117.383 442.346 117.602 441.909 117.743C440.982 118.041 439.562 117.974 437.572 117.467L437.078 119.405ZM445.425 116.007C445.554 115.222 445.628 114.462 445.699 113.942C445.778 113.365 445.858 113.021 445.971 112.79C446.058 112.613 446.166 112.495 446.399 112.397C446.679 112.279 447.159 112.185 447.995 112.185V110.185C447.053 110.185 446.262 110.284 445.621 110.555C444.933 110.845 444.469 111.31 444.176 111.91C443.908 112.456 443.797 113.083 443.717 113.672C443.629 114.316 443.577 114.917 443.451 115.685L445.425 116.007ZM447.995 112.185C449.533 112.185 450.629 112.616 452.084 113.42C453.538 114.223 455.409 115.44 458.244 116.753L459.085 114.939C456.331 113.663 454.645 112.549 453.051 111.669C451.457 110.789 450.014 110.185 447.995 110.185V112.185ZM458.244 116.753C459.546 117.357 461.848 118.884 464.766 120.894C467.644 122.877 471.059 125.284 474.499 127.557C477.938 129.829 481.443 131.995 484.52 133.497C486.057 134.248 487.516 134.847 488.825 135.207C490.114 135.563 491.362 135.716 492.428 135.466L491.97 133.519C491.384 133.657 490.52 133.6 489.356 133.279C488.212 132.964 486.876 132.422 485.397 131.7C482.44 130.256 479.022 128.149 475.602 125.889C472.183 123.63 468.803 121.246 465.901 119.247C463.04 117.276 460.577 115.63 459.085 114.939L458.244 116.753ZM492.428 135.466C494.181 135.053 495.811 134.371 497.416 133.607C498.217 133.225 499.025 132.816 499.837 132.409C500.652 132 501.478 131.589 502.336 131.191C505.747 129.611 509.665 128.241 515.062 128.241V126.241C509.282 126.241 505.07 127.72 501.495 129.377C500.607 129.788 499.757 130.211 498.94 130.621C498.118 131.033 497.334 131.43 496.556 131.801C495 132.542 493.519 133.154 491.97 133.519L492.428 135.466ZM515.062 128.241C520.46 128.241 523.363 129.478 526.025 130.447C527.371 130.937 528.714 131.382 530.267 131.515C531.833 131.649 533.554 131.464 535.69 130.784L535.082 128.878C533.154 129.492 531.699 129.631 530.438 129.522C529.165 129.413 528.031 129.048 526.71 128.567C524.037 127.594 520.843 126.241 515.062 126.241V128.241ZM535.69 130.784C539.889 129.446 541.77 128.083 543.974 126.734C546.116 125.424 548.695 124.038 554.442 122.51L553.928 120.577C547.99 122.156 545.233 123.62 542.93 125.028C540.689 126.399 539.013 127.626 535.082 128.878L535.69 130.784ZM554.442 122.51C560.263 120.962 566.79 119.558 572.658 119.24C578.58 118.919 583.567 119.721 586.558 122.301L587.864 120.786C584.25 117.669 578.567 116.917 572.549 117.243C566.477 117.572 559.794 119.017 553.928 120.577L554.442 122.51ZM586.558 122.301C590.042 125.306 596.961 128.203 603.706 129.643C607.097 130.368 610.511 130.739 613.495 130.554C616.451 130.37 619.145 129.63 620.919 127.972L619.554 126.51C618.28 127.701 616.148 128.385 613.371 128.557C610.624 128.728 607.401 128.387 604.123 127.687C597.531 126.279 590.985 123.479 587.864 120.786L586.558 122.301ZM620.919 127.972C623.921 125.167 626.567 123.487 628.867 122.901C631.09 122.335 633.033 122.773 634.814 124.362L636.145 122.869C633.861 120.832 631.231 120.235 628.373 120.963C625.592 121.672 622.65 123.618 619.554 126.51L620.919 127.972ZM634.814 124.362C636.453 125.824 635.981 127.109 636.134 129.129C636.209 130.124 636.493 131.199 637.546 132.097C638.531 132.938 640.082 133.526 642.425 133.924L642.76 131.953C640.53 131.574 639.414 131.062 638.843 130.575C638.34 130.146 638.18 129.667 638.128 128.979C638.026 127.632 638.57 125.032 636.145 122.869L634.814 124.362ZM642.425 133.924C647.049 134.71 650.682 134.744 653.528 133.753C656.443 132.738 658.406 130.695 659.765 127.648L657.938 126.834C656.756 129.484 655.163 131.067 652.87 131.865C650.508 132.687 647.282 132.721 642.76 131.953L642.425 133.924ZM659.765 127.648C661.059 124.745 662.271 121.921 663.877 119.98C664.665 119.028 665.505 118.345 666.439 117.973C667.357 117.606 668.441 117.509 669.782 117.851L670.276 115.913C668.569 115.478 667.049 115.575 665.697 116.115C664.36 116.649 663.263 117.585 662.336 118.705C660.513 120.907 659.184 124.04 657.938 126.834L659.765 127.648ZM669.782 117.851C670.791 118.108 671.861 117.973 672.907 117.632C673.957 117.289 675.052 116.719 676.155 116.019C678.357 114.619 680.728 112.612 683.016 110.571C685.333 108.504 687.548 106.42 689.534 104.757C690.521 103.93 691.423 103.233 692.22 102.715C693.033 102.187 693.66 101.897 694.109 101.805L693.71 99.8458C692.889 100.013 692.008 100.468 691.13 101.038C690.236 101.619 689.264 102.375 688.25 103.223C686.235 104.911 683.941 107.067 681.685 109.079C679.401 111.116 677.135 113.026 675.082 114.33C674.057 114.981 673.12 115.459 672.288 115.73C671.453 116.002 670.792 116.044 670.276 115.913L669.782 117.851ZM694.109 101.805C696.786 101.26 701.592 99.396 705.732 96.8901C707.808 95.6339 709.767 94.1862 711.219 92.6194C712.657 91.0689 713.709 89.2806 713.709 87.359H711.709C711.709 88.545 711.046 89.8644 709.753 91.2597C708.474 92.6388 706.686 93.975 704.697 95.1791C700.707 97.5937 696.115 99.3555 693.71 99.8458L694.109 101.805ZM713.709 87.359C713.709 86.5408 714.216 85.6091 715.372 84.5857C716.509 83.5792 718.128 82.6168 719.994 81.7374C723.719 79.9825 728.217 78.6558 731.221 77.9753L730.779 76.0247C727.686 76.7254 723.039 78.092 719.142 79.9282C717.197 80.8444 715.387 81.902 714.047 83.0881C712.726 84.2574 711.709 85.691 711.709 87.359H713.709Z" fill="#347AE2"/>
<g filter="url(#filter0_d_69_803)">
<circle cx="300" cy="91" r="4" fill="#347AE2"/>
<circle cx="300" cy="91" r="3.5" stroke="white"/>
</g>
<g filter="url(#filter1_d_69_803)">
<rect x="246" y="12" width="108" height="66" rx="8" fill="white" shape-rendering="crispEdges"/>
<path d="M265.456 29.32V28.324H267.712V37H266.608V29.32H265.456ZM275.12 29.272H270.908V32.008C271.092 31.752 271.364 31.544 271.724 31.384C272.084 31.216 272.472 31.132 272.888 31.132C273.552 31.132 274.092 31.272 274.508 31.552C274.924 31.824 275.22 32.18 275.396 32.62C275.58 33.052 275.672 33.512 275.672 34C275.672 34.576 275.564 35.092 275.348 35.548C275.132 36.004 274.8 36.364 274.352 36.628C273.912 36.892 273.364 37.024 272.708 37.024C271.868 37.024 271.188 36.808 270.668 36.376C270.148 35.944 269.832 35.368 269.72 34.648H270.788C270.892 35.104 271.112 35.46 271.448 35.716C271.784 35.972 272.208 36.1 272.72 36.1C273.352 36.1 273.828 35.912 274.148 35.536C274.468 35.152 274.628 34.648 274.628 34.024C274.628 33.4 274.468 32.92 274.148 32.584C273.828 32.24 273.356 32.068 272.732 32.068C272.308 32.068 271.936 32.172 271.616 32.38C271.304 32.58 271.076 32.856 270.932 33.208H269.9V28.312H275.12V29.272ZM285.446 35.14H281.798L281.126 37H279.974L282.998 28.684H284.258L287.27 37H286.118L285.446 35.14ZM285.134 34.252L283.622 30.028L282.11 34.252H285.134ZM294.42 30.424V37H293.328V36.028C293.12 36.364 292.828 36.628 292.452 36.82C292.084 37.004 291.676 37.096 291.228 37.096C290.716 37.096 290.256 36.992 289.848 36.784C289.44 36.568 289.116 36.248 288.876 35.824C288.644 35.4 288.528 34.884 288.528 34.276V30.424H289.608V34.132C289.608 34.78 289.772 35.28 290.1 35.632C290.428 35.976 290.876 36.148 291.444 36.148C292.028 36.148 292.488 35.968 292.824 35.608C293.16 35.248 293.328 34.724 293.328 34.036V30.424H294.42ZM298.976 30.316C299.544 30.316 300.04 30.44 300.464 30.688C300.896 30.936 301.216 31.248 301.424 31.624V30.424H302.528V37.144C302.528 37.744 302.4 38.276 302.144 38.74C301.888 39.212 301.52 39.58 301.04 39.844C300.568 40.108 300.016 40.24 299.384 40.24C298.52 40.24 297.8 40.036 297.224 39.628C296.648 39.22 296.308 38.664 296.204 37.96H297.284C297.404 38.36 297.652 38.68 298.028 38.92C298.404 39.168 298.856 39.292 299.384 39.292C299.984 39.292 300.472 39.104 300.848 38.728C301.232 38.352 301.424 37.824 301.424 37.144V35.764C301.208 36.148 300.888 36.468 300.464 36.724C300.04 36.98 299.544 37.108 298.976 37.108C298.392 37.108 297.86 36.964 297.38 36.676C296.908 36.388 296.536 35.984 296.264 35.464C295.992 34.944 295.856 34.352 295.856 33.688C295.856 33.016 295.992 32.428 296.264 31.924C296.536 31.412 296.908 31.016 297.38 30.736C297.86 30.456 298.392 30.316 298.976 30.316ZM301.424 33.7C301.424 33.204 301.324 32.772 301.124 32.404C300.924 32.036 300.652 31.756 300.308 31.564C299.972 31.364 299.6 31.264 299.192 31.264C298.784 31.264 298.412 31.36 298.076 31.552C297.74 31.744 297.472 32.024 297.272 32.392C297.072 32.76 296.972 33.192 296.972 33.688C296.972 34.192 297.072 34.632 297.272 35.008C297.472 35.376 297.74 35.66 298.076 35.86C298.412 36.052 298.784 36.148 299.192 36.148C299.6 36.148 299.972 36.052 300.308 35.86C300.652 35.66 300.924 35.376 301.124 35.008C301.324 34.632 301.424 34.196 301.424 33.7ZM307.26 36.124C308.276 35.308 309.072 34.64 309.648 34.12C310.224 33.592 310.708 33.044 311.1 32.476C311.5 31.9 311.7 31.336 311.7 30.784C311.7 30.264 311.572 29.856 311.316 29.56C311.068 29.256 310.664 29.104 310.104 29.104C309.56 29.104 309.136 29.276 308.832 29.62C308.536 29.956 308.376 30.408 308.352 30.976H307.296C307.328 30.08 307.6 29.388 308.112 28.9C308.624 28.412 309.284 28.168 310.092 28.168C310.916 28.168 311.568 28.396 312.048 28.852C312.536 29.308 312.78 29.936 312.78 30.736C312.78 31.4 312.58 32.048 312.18 32.68C311.788 33.304 311.34 33.856 310.836 34.336C310.332 34.808 309.688 35.36 308.904 35.992H313.032V36.904H307.26V36.124ZM314.295 32.572C314.295 31.196 314.519 30.124 314.967 29.356C315.415 28.58 316.199 28.192 317.319 28.192C318.431 28.192 319.211 28.58 319.659 29.356C320.107 30.124 320.331 31.196 320.331 32.572C320.331 33.972 320.107 35.06 319.659 35.836C319.211 36.612 318.431 37 317.319 37C316.199 37 315.415 36.612 314.967 35.836C314.519 35.06 314.295 33.972 314.295 32.572ZM319.251 32.572C319.251 31.876 319.203 31.288 319.107 30.808C319.019 30.32 318.831 29.928 318.543 29.632C318.263 29.336 317.855 29.188 317.319 29.188C316.775 29.188 316.359 29.336 316.071 29.632C315.791 29.928 315.603 30.32 315.507 30.808C315.419 31.288 315.375 31.876 315.375 32.572C315.375 33.292 315.419 33.896 315.507 34.384C315.603 34.872 315.791 35.264 316.071 35.56C316.359 35.856 316.775 36.004 317.319 36.004C317.855 36.004 318.263 35.856 318.543 35.56C318.831 35.264 319.019 34.872 319.107 34.384C319.203 33.896 319.251 33.292 319.251 32.572ZM321.698 36.124C322.714 35.308 323.51 34.64 324.086 34.12C324.662 33.592 325.146 33.044 325.538 32.476C325.938 31.9 326.138 31.336 326.138 30.784C326.138 30.264 326.01 29.856 325.754 29.56C325.506 29.256 325.102 29.104 324.542 29.104C323.998 29.104 323.574 29.276 323.27 29.62C322.974 29.956 322.814 30.408 322.79 30.976H321.734C321.766 30.08 322.038 29.388 322.55 28.9C323.062 28.412 323.722 28.168 324.53 28.168C325.354 28.168 326.006 28.396 326.486 28.852C326.974 29.308 327.218 29.936 327.218 30.736C327.218 31.4 327.018 32.048 326.618 32.68C326.226 33.304 325.778 33.856 325.274 34.336C324.77 34.808 324.126 35.36 323.342 35.992H327.47V36.904H321.698V36.124ZM328.6 36.124C329.616 35.308 330.412 34.64 330.988 34.12C331.564 33.592 332.048 33.044 332.44 32.476C332.84 31.9 333.04 31.336 333.04 30.784C333.04 30.264 332.912 29.856 332.656 29.56C332.408 29.256 332.004 29.104 331.444 29.104C330.9 29.104 330.476 29.276 330.172 29.62C329.876 29.956 329.716 30.408 329.692 30.976H328.636C328.668 30.08 328.94 29.388 329.452 28.9C329.964 28.412 330.624 28.168 331.432 28.168C332.256 28.168 332.908 28.396 333.388 28.852C333.876 29.308 334.12 29.936 334.12 30.736C334.12 31.4 333.92 32.048 333.52 32.68C333.128 33.304 332.68 33.856 332.176 34.336C331.672 34.808 331.028 35.36 330.244 35.992H334.372V36.904H328.6V36.124Z" fill="#7C8DB5"/>
<path d="M266.704 56.832C266.704 57.3653 266.571 57.8667 266.304 58.336C266.048 58.8053 265.664 59.2 265.152 59.52C264.651 59.84 264.053 60.032 263.36 60.096V61.392H262.32V60.096C261.317 60 260.507 59.6853 259.888 59.152C259.269 58.6187 258.96 57.9147 258.96 57.04H260.912C260.944 57.456 261.077 57.8027 261.312 58.08C261.547 58.3467 261.883 58.5173 262.32 58.592V55.072C261.605 54.8907 261.024 54.7093 260.576 54.528C260.128 54.336 259.744 54.0373 259.424 53.632C259.115 53.2267 258.96 52.672 258.96 51.968C258.96 51.0827 259.269 50.352 259.888 49.776C260.507 49.1893 261.317 48.848 262.32 48.752V47.456H263.36V48.752C264.299 48.8373 265.051 49.136 265.616 49.648C266.192 50.1493 266.517 50.8427 266.592 51.728H264.64C264.608 51.3973 264.48 51.104 264.256 50.848C264.032 50.5813 263.733 50.4 263.36 50.304V53.76C264.075 53.9307 264.656 54.112 265.104 54.304C265.552 54.4853 265.931 54.7787 266.24 55.184C266.549 55.5787 266.704 56.128 266.704 56.832ZM260.816 51.872C260.816 52.3093 260.944 52.6507 261.2 52.896C261.467 53.1413 261.84 53.3387 262.32 53.488V50.256C261.861 50.3093 261.493 50.4747 261.216 50.752C260.949 51.0293 260.816 51.4027 260.816 51.872ZM263.36 58.592C263.829 58.5173 264.197 58.3307 264.464 58.032C264.731 57.7227 264.864 57.3547 264.864 56.928C264.864 56.5013 264.731 56.1707 264.464 55.936C264.208 55.6907 263.84 55.4933 263.36 55.344V58.592ZM276.886 49.904H271.526V53.088C271.75 52.7893 272.081 52.5387 272.518 52.336C272.966 52.1333 273.441 52.032 273.942 52.032C274.838 52.032 275.564 52.224 276.118 52.608C276.684 52.992 277.084 53.4773 277.318 54.064C277.564 54.6507 277.686 55.2693 277.686 55.92C277.686 56.7093 277.532 57.4133 277.222 58.032C276.924 58.64 276.47 59.12 275.862 59.472C275.265 59.824 274.529 60 273.654 60C272.492 60 271.558 59.712 270.854 59.136C270.15 58.56 269.729 57.7973 269.59 56.848H271.366C271.484 57.3493 271.745 57.7493 272.15 58.048C272.556 58.336 273.062 58.48 273.67 58.48C274.428 58.48 274.993 58.2507 275.366 57.792C275.75 57.3333 275.942 56.7253 275.942 55.968C275.942 55.2 275.75 54.6133 275.366 54.208C274.982 53.792 274.417 53.584 273.67 53.584C273.148 53.584 272.705 53.7173 272.342 53.984C271.99 54.24 271.734 54.592 271.574 55.04H269.846V48.304H276.886V49.904ZM281.857 56.832C281.964 57.3653 282.193 57.7707 282.545 58.048C282.897 58.3253 283.372 58.464 283.969 58.464C284.726 58.464 285.281 58.1653 285.633 57.568C285.985 56.9707 286.161 55.952 286.161 54.512C285.905 54.8747 285.542 55.1573 285.073 55.36C284.614 55.552 284.113 55.648 283.569 55.648C282.876 55.648 282.246 55.5093 281.681 55.232C281.116 54.944 280.668 54.5227 280.337 53.968C280.017 53.4027 279.857 52.72 279.857 51.92C279.857 50.7467 280.198 49.8133 280.881 49.12C281.574 48.416 282.524 48.064 283.729 48.064C285.18 48.064 286.209 48.5493 286.817 49.52C287.436 50.48 287.745 51.9573 287.745 53.952C287.745 55.328 287.628 56.4533 287.393 57.328C287.169 58.2027 286.774 58.864 286.209 59.312C285.644 59.76 284.86 59.984 283.857 59.984C282.716 59.984 281.836 59.6853 281.217 59.088C280.598 58.4907 280.252 57.7387 280.177 56.832H281.857ZM283.889 54.112C284.529 54.112 285.03 53.9147 285.393 53.52C285.766 53.1147 285.953 52.5813 285.953 51.92C285.953 51.184 285.756 50.6133 285.361 50.208C284.977 49.792 284.449 49.584 283.777 49.584C283.105 49.584 282.572 49.7973 282.177 50.224C281.793 50.64 281.601 51.1893 281.601 51.872C281.601 52.5227 281.788 53.0613 282.161 53.488C282.545 53.904 283.121 54.112 283.889 54.112ZM291.981 57.808L290.045 62.224H288.861L289.997 57.808H291.981ZM293.111 57.568V56.192L298.487 48.48H300.695V55.984H302.183V57.568H300.695V60H298.903V57.568H293.111ZM298.983 50.336L295.207 55.984H298.983V50.336ZM305.966 56.832C306.073 57.3653 306.302 57.7707 306.654 58.048C307.006 58.3253 307.481 58.464 308.078 58.464C308.836 58.464 309.39 58.1653 309.742 57.568C310.094 56.9707 310.27 55.952 310.27 54.512C310.014 54.8747 309.652 55.1573 309.182 55.36C308.724 55.552 308.222 55.648 307.678 55.648C306.985 55.648 306.356 55.5093 305.79 55.232C305.225 54.944 304.777 54.5227 304.446 53.968C304.126 53.4027 303.966 52.72 303.966 51.92C303.966 50.7467 304.308 49.8133 304.99 49.12C305.684 48.416 306.633 48.064 307.838 48.064C309.289 48.064 310.318 48.5493 310.926 49.52C311.545 50.48 311.854 51.9573 311.854 53.952C311.854 55.328 311.737 56.4533 311.502 57.328C311.278 58.2027 310.884 58.864 310.318 59.312C309.753 59.76 308.969 59.984 307.966 59.984C306.825 59.984 305.945 59.6853 305.326 59.088C304.708 58.4907 304.361 57.7387 304.286 56.832H305.966ZM307.998 54.112C308.638 54.112 309.14 53.9147 309.502 53.52C309.876 53.1147 310.062 52.5813 310.062 51.92C310.062 51.184 309.865 50.6133 309.47 50.208C309.086 49.792 308.558 49.584 307.886 49.584C307.214 49.584 306.681 49.7973 306.286 50.224C305.902 50.64 305.71 51.1893 305.71 51.872C305.71 52.5227 305.897 53.0613 306.27 53.488C306.654 53.904 307.23 54.112 307.998 54.112ZM314.859 57.52C315.883 56.6347 316.688 55.9093 317.275 55.344C317.872 54.768 318.368 54.1707 318.763 53.552C319.157 52.9333 319.355 52.3147 319.355 51.696C319.355 51.056 319.2 50.5547 318.891 50.192C318.592 49.8293 318.117 49.648 317.467 49.648C316.837 49.648 316.347 49.8507 315.995 50.256C315.653 50.6507 315.472 51.184 315.451 51.856H313.691C313.723 50.64 314.085 49.712 314.779 49.072C315.483 48.4213 316.373 48.096 317.451 48.096C318.613 48.096 319.52 48.416 320.171 49.056C320.832 49.696 321.163 50.5493 321.163 51.616C321.163 52.384 320.965 53.1253 320.571 53.84C320.187 54.544 319.723 55.1787 319.179 55.744C318.645 56.2987 317.963 56.944 317.131 57.68L316.411 58.32H321.483V59.84H313.707V58.512L314.859 57.52ZM324.061 60.112C323.73 60.112 323.453 60 323.229 59.776C323.005 59.552 322.893 59.2747 322.893 58.944C322.893 58.6133 323.005 58.336 323.229 58.112C323.453 57.888 323.73 57.776 324.061 57.776C324.381 57.776 324.653 57.888 324.877 58.112C325.101 58.336 325.213 58.6133 325.213 58.944C325.213 59.2747 325.101 59.552 324.877 59.776C324.653 60 324.381 60.112 324.061 60.112ZM326.704 50V48.336H330.032V60H328.192V50H326.704ZM332.538 54.016C332.538 52.1707 332.847 50.7307 333.466 49.696C334.095 48.6507 335.173 48.128 336.698 48.128C338.223 48.128 339.295 48.6507 339.914 49.696C340.543 50.7307 340.858 52.1707 340.858 54.016C340.858 55.8827 340.543 57.344 339.914 58.4C339.295 59.4453 338.223 59.968 336.698 59.968C335.173 59.968 334.095 59.4453 333.466 58.4C332.847 57.344 332.538 55.8827 332.538 54.016ZM339.066 54.016C339.066 53.152 339.007 52.4213 338.89 51.824C338.783 51.2267 338.559 50.7413 338.218 50.368C337.877 49.984 337.37 49.792 336.698 49.792C336.026 49.792 335.519 49.984 335.178 50.368C334.837 50.7413 334.607 51.2267 334.49 51.824C334.383 52.4213 334.33 53.152 334.33 54.016C334.33 54.912 334.383 55.664 334.49 56.272C334.597 56.88 334.821 57.3707 335.162 57.744C335.514 58.1173 336.026 58.304 336.698 58.304C337.37 58.304 337.877 58.1173 338.218 57.744C338.57 57.3707 338.799 56.88 338.906 56.272C339.013 55.664 339.066 54.912 339.066 54.016Z" fill="black"/>
</g>
<path d="M300.64 82.4665C300.269 82.7756 299.731 82.7756 299.36 82.4665L294 78L306 78L300.64 82.4665Z" fill="white"/>
<defs>
<filter id="filter0_d_69_803" x="286" y="79" width="28" height="28" filterUnits="userSpaceOnUse" color-interpolation-filters="sRGB">
<feFlood flood-opacity="0" result="BackgroundImageFix"/>
<feColorMatrix in="SourceAlpha" type="matrix" values="0 0 0 0 0 0 0 0 0 0 0 0 0 0 0 0 0 0 127 0" result="hardAlpha"/>
<feOffset dy="2"/>
<feGaussianBlur stdDeviation="5"/>
<feComposite in2="hardAlpha" operator="out"/>
<feColorMatrix type="matrix" values="0 0 0 0 0.486275 0 0 0 0 0.552941 0 0 0 0 0.709804 0 0 0 0.12 0"/>
<feBlend mode="normal" in2="BackgroundImageFix" result="effect1_dropShadow_69_803"/>
<feBlend mode="normal" in="SourceGraphic" in2="effect1_dropShadow_69_803" result="shape"/>
</filter>
<filter id="filter1_d_69_803" x="236" y="4" width="128" height="86" filterUnits="userSpaceOnUse" color-interpolation-filters="sRGB">
<feFlood flood-opacity="0" result="BackgroundImageFix"/>
<feColorMatrix in="SourceAlpha" type="matrix" values="0 0 0 0 0 0 0 0 0 0 0 0 0 0 0 0 0 0 127 0" result="hardAlpha"/>
<feOffset dy="2"/>
<feGaussianBlur stdDeviation="5"/>
<feComposite in2="hardAlpha" operator="out"/>
<feColorMatrix type="matrix" values="0 0 0 0 0.486275 0 0 0 0 0.552941 0 0 0 0 0.709804 0 0 0 0.12 0"/>
<feBlend mode="normal" in2="BackgroundImageFix" result="effect1_dropShadow_69_803"/>
<feBlend mode="normal" in="SourceGraphic" in2="effect1_dropShadow_69_803" result="shape"/>
</filter>
<linearGradient id="paint0_linear_69_803" x1="300" y1="210" x2="300" y2="29" gradientUnits="userSpaceOnUse">
<stop stop-color="#E6EDFF"/>
<stop offset="1" stop-color="#E6EDFF" stop-opacity="0"/>
</linearGradient>
</defs>
</svg>
